<?xml version="1.0" standalone="no"?>
<!DOCTYPE svg PUBLIC "-//W3C//DTD SVG 20010904//EN"
 "http://www.w3.org/TR/2001/REC-SVG-20010904/DTD/svg10.dtd">
<svg version="1.0" xmlns="http://www.w3.org/2000/svg"
 width="263.000000pt" height="194.000000pt" viewBox="0 0 263.000000 194.000000"
 preserveAspectRatio="xMidYMid meet">

<g transform="translate(0.000000,194.000000) scale(0.100000,-0.100000)"
fill="#000000" stroke="none">
<path d="M825 1831 c-191 -24 -385 -143 -490 -301 -82 -124 -115 -234 -115
-384 1 -175 64 -334 182 -462 l68 -72 0 -58 c-1 -51 -15 -109 -45 -177 -6 -14
-2 -17 18 -17 44 0 160 49 216 91 l53 40 56 -12 c79 -18 244 -14 322 6 235 61
414 226 493 456 57 166 43 345 -41 512 -57 114 -170 233 -277 293 -126 70
-295 102 -440 85z m140 -276 c33 -32 33 -78 0 -111 -23 -23 -25 -32 -25 -113
0 -48 3 -91 7 -95 4 -3 35 22 70 56 55 54 63 67 63 100 0 73 83 106 135 53 34
-33 32 -70 -5 -107 -24 -23 -37 -29 -60 -26 -25 4 -38 -4 -91 -58 -35 -35 -58
-67 -55 -73 5 -7 39 -10 94 -9 79 2 90 5 120 30 39 33 70 35 106 7 19 -15 26
-29 26 -57 0 -75 -83 -110 -136 -57 -23 23 -32 25 -114 25 -52 0 -92 -4 -95
-11 -4 -5 19 -37 51 -70 53 -53 63 -59 101 -59 33 0 46 -5 62 -26 21 -27 26
-59 15 -89 -11 -26 -62 -44 -98 -34 -39 11 -56 34 -56 74 0 26 -12 45 -60 94
-33 34 -64 59 -70 56 -5 -3 -10 -46 -10 -94 0 -80 2 -89 25 -111 50 -47 16
-130 -53 -130 -75 0 -110 81 -57 134 23 23 25 33 25 110 0 51 -4 88 -11 92 -6
3 -37 -20 -70 -52 -48 -47 -59 -65 -59 -90 0 -46 -9 -63 -42 -80 -58 -30 -118
6 -118 70 0 45 35 76 85 76 38 0 46 5 98 64 31 35 53 66 50 70 -4 3 -47 6 -96
6 -83 0 -90 -2 -109 -25 -14 -18 -29 -25 -56 -25 -99 0 -113 137 -16 156 25 5
38 0 66 -25 34 -29 40 -31 121 -31 52 0 89 4 93 11 9 15 -115 139 -132 132
-22 -8 -62 5 -84 29 -67 72 46 173 115 103 17 -16 25 -35 25 -57 0 -28 11 -44
63 -96 35 -34 66 -59 70 -56 4 4 7 46 7 94 0 79 -2 88 -25 110 -52 49 -16 140
55 140 19 0 40 -9 55 -25z"/>
<path d="M1701 1258 c4 -24 8 -64 9 -90 l0 -48 250 0 250 0 0 -90 0 -90 -264
0 -264 0 -13 -37 c-19 -62 -64 -144 -111 -208 -145 -194 -332 -297 -585 -321
-40 -3 -73 -10 -73 -15 0 -22 25 -57 50 -72 25 -15 86 -17 628 -17 l601 0 34
33 35 32 3 383 c2 210 2 417 -1 458 -5 67 -8 78 -33 100 -28 24 -28 24 -276
24 l-248 0 8 -42z m401 -695 c9 -10 15 -31 13 -48 -1 -16 3 -36 9 -44 8 -11 8
-13 -1 -7 -9 5 -13 1 -13 -11 0 -39 -18 -43 -176 -43 -176 0 -176 0 -177 86 0
81 5 84 183 84 127 0 149 -2 162 -17z"/>
</g>
</svg>
